<svg width="273" height="276" viewBox="0 0 273 276" fill="none" xmlns="http://www.w3.org/2000/svg">
<path opacity="0.864" fill-rule="evenodd" clip-rule="evenodd" d="M22.7536 0.065334C28.1896 -0.276566 33.3562 0.723434 38.2536 3.06533C60.1736 -1.47267 77.8396 5.19393 91.2536 23.0653C96.8366 31.229 102.17 39.5624 107.254 48.0653C110.754 52.8986 114.921 57.0653 119.754 60.5653C151.452 82.0843 184.118 102.084 217.754 120.565C226.601 125.155 235.601 129.488 244.754 133.565C267.724 149.235 276.224 170.735 270.254 198.065C262.861 227.394 246.361 249.894 220.754 265.565C201.388 274.987 181.054 277.654 159.754 273.565C138.754 257.898 117.754 242.232 96.7536 226.565C87.5316 218.342 79.3646 209.176 72.2536 199.065C54.6086 208.239 38.942 205.573 25.2536 191.065C16.7979 178.874 14.9645 165.707 19.7536 151.565C-4.79647 129.763 -6.46317 106.263 14.7536 81.0653C2.70183 58.4243 4.36853 36.9243 19.7536 16.5653C17.7977 12.9707 17.2977 9.13733 18.2536 5.06533C19.2786 2.87833 20.7786 1.21173 22.7536 0.065334Z" fill="#333333"/>
<path fill-rule="evenodd" clip-rule="evenodd" d="M24.7537 6.06566C27.0042 5.74706 29.0042 6.24706 30.7537 7.56566C28.6123 8.87326 26.6123 10.3733 24.7537 12.0657C22.2543 10.1702 22.2543 8.17016 24.7537 6.06566Z" fill="#D9D9D9"/>
<path fill-rule="evenodd" clip-rule="evenodd" d="M88.7538 31.0645C92.5398 41.0403 93.7068 51.3736 92.2538 62.0645C82.5148 86.1825 65.0148 94.6825 39.7538 87.5645C26.9607 81.2775 18.2941 71.4437 13.7538 58.0645C11.3901 35.2933 20.3901 18.7933 40.7538 8.56449C61.9578 5.01899 77.9578 12.519 88.7538 31.0645Z" fill="#F6F6F6"/>
<path fill-rule="evenodd" clip-rule="evenodd" d="M33.7537 37.0665C44.5827 35.7315 51.0827 40.3981 53.2537 51.0665C55.5087 58.9728 53.3423 65.1395 46.7537 69.5665C39.2027 71.5405 33.7027 69.0405 30.2537 62.0665C26.1293 55.2144 25.7959 48.2144 29.2537 41.0665C30.6505 39.4962 32.1505 38.1629 33.7537 37.0665Z" fill="#C78088"/>
<path fill-rule="evenodd" clip-rule="evenodd" d="M88.7537 31.0664C93.8977 38.6674 99.0637 46.3341 104.254 54.0664C108.649 58.6307 113.149 62.9641 117.754 67.0664C107.604 64.7693 100.104 68.1027 95.2537 77.0664C94.5507 79.4954 94.7167 81.8284 95.7537 84.0664C79.1337 84.6134 67.9667 92.6134 62.2537 108.066C61.0087 115.806 62.1747 123.139 65.7537 130.066C65.8527 132.803 65.5187 135.47 64.7537 138.066C62.6127 141.038 59.9457 143.538 56.7537 145.566C45.8067 149.606 34.8067 149.94 23.7537 146.566C19.5414 143.855 16.2081 140.355 13.7537 136.066C18.4786 138.759 23.4786 140.926 28.7537 142.566C36.6983 144.149 44.0316 142.816 50.7537 138.566C57.7507 131.431 58.5837 123.598 53.2537 115.066C46.0038 107.812 38.1705 101.312 29.7537 95.5664C29.0013 94.8954 28.6679 94.0624 28.7537 93.0664C31.0855 95.0104 33.7522 95.8434 36.7537 95.5664C23.3483 86.5894 15.6817 74.0895 13.7537 58.0664C18.294 71.4456 26.9606 81.2794 39.7537 87.5664C65.0147 94.6844 82.5147 86.1844 92.2537 62.0664C93.7067 51.3755 92.5397 41.0422 88.7537 31.0664Z" fill="#AAAAAA"/>
<path fill-rule="evenodd" clip-rule="evenodd" d="M117.754 67.0662C138.759 80.4072 159.759 93.7402 180.754 107.066C183.4 110.378 186.4 113.378 189.754 116.066C193.471 123.892 190.804 127.726 181.754 127.566C178.007 130.753 174.34 133.919 170.754 137.066C173.033 141.18 176.2 144.513 180.254 147.066C180.474 153.236 177.641 157.736 171.754 160.566C167.401 160.811 163.067 160.811 158.754 160.566C157.45 161.37 156.783 162.537 156.754 164.066C159.351 167.558 159.351 171.058 156.754 174.566C150.307 174.517 143.973 173.85 137.754 172.566C137.157 173.628 136.824 174.794 136.754 176.066C137.743 179.384 138.743 182.718 139.754 186.066C139.535 187.504 139.035 188.837 138.254 190.066C135.921 191.733 133.587 193.399 131.254 195.066C131.022 199.121 130.522 203.121 129.754 207.066C129.229 207.758 128.562 208.258 127.754 208.566C123.421 208.899 119.087 209.233 114.754 209.566C114.128 210.316 113.628 211.15 113.254 212.066C112.921 215.733 112.587 219.399 112.254 223.066C110.465 224.795 108.298 225.462 105.754 225.066C93.3717 216.682 83.3717 206.016 75.7537 193.066C80.4627 186.983 84.1287 180.316 86.7537 173.066C89.4797 173.302 91.8127 172.469 93.7537 170.566C98.1967 162.79 104.53 157.123 112.754 153.566C115.817 151.536 117.483 148.702 117.754 145.066C125.164 142.348 130.497 137.348 133.754 130.066C134.688 128.794 135.355 127.294 135.754 125.566C134.995 120.438 134.495 115.271 134.254 110.066C133.375 107.22 131.708 106.553 129.254 108.066C124.832 122.817 114.998 131.651 99.7537 134.566C85.9027 136.469 75.2357 131.636 67.7537 120.066C65.3897 106.654 70.0557 96.4882 81.7537 89.5662C87.6367 87.5222 93.6367 85.8552 99.7537 84.5662C98.4607 84.0762 97.1267 83.9092 95.7537 84.0662C94.7167 81.8282 94.5507 79.4952 95.2537 77.0662C100.104 68.1025 107.604 64.7691 117.754 67.0662Z" fill="#F6F6F6"/>
<path fill-rule="evenodd" clip-rule="evenodd" d="M28.7536 93.0664C28.6678 94.0624 29.0012 94.8954 29.7536 95.5664C38.1704 101.312 46.0037 107.812 53.2536 115.066C58.5836 123.598 57.7506 131.431 50.7536 138.566C44.0315 142.816 36.6982 144.149 28.7536 142.566C23.4785 140.926 18.4785 138.759 13.7536 136.066C10.2798 132.113 8.11307 127.446 7.25357 122.066C4.46387 106.995 8.96388 94.6614 20.7536 85.0664C23.108 88.0874 25.7747 90.7544 28.7536 93.0664Z" fill="#F6F6F6"/>
<path fill-rule="evenodd" clip-rule="evenodd" d="M95.7536 84.0649C97.1266 83.9079 98.4606 84.0749 99.7536 84.5649C93.6366 85.8539 87.6366 87.5209 81.7536 89.5649C70.0556 96.4869 65.3896 106.653 67.7536 120.065C74.1036 138.547 87.1036 146.714 106.754 144.565C114.857 143.312 122.191 140.312 128.754 135.565C129.921 133.732 131.087 131.898 132.254 130.065C132.944 128.827 133.444 128.827 133.754 130.065C130.497 137.347 125.164 142.347 117.754 145.065C107.881 147.391 97.8806 147.724 87.7536 146.065C78.6036 143.163 71.2696 137.83 65.7536 130.065C62.1746 123.138 61.0086 115.805 62.2536 108.065C67.9666 92.6119 79.1336 84.6119 95.7536 84.0649Z" fill="#3A3939"/>
<path fill-rule="evenodd" clip-rule="evenodd" d="M133.754 130.065C133.444 128.827 132.944 128.827 132.254 130.065C131.087 131.898 129.921 133.732 128.754 135.565C122.191 140.312 114.857 143.312 106.754 144.565C87.1037 146.714 74.1037 138.547 67.7537 120.065C75.2357 131.635 85.9027 136.468 99.7537 134.565C114.998 131.65 124.832 122.816 129.254 108.065C131.708 106.552 133.375 107.219 134.254 110.065C134.495 115.27 134.995 120.437 135.754 125.565C135.355 127.293 134.688 128.793 133.754 130.065Z" fill="#A9A9A9"/>
<path fill-rule="evenodd" clip-rule="evenodd" d="M180.754 107.066C196.589 115.482 212.256 124.149 227.754 133.066C229.282 140.438 233.116 146.438 239.254 151.066C242.672 155.479 242.506 159.646 238.754 163.566C233.739 163.785 228.739 163.785 223.754 163.566C222.323 164.031 221.157 164.865 220.254 166.066C219.981 167.895 219.147 169.395 217.754 170.566C213.501 170.766 209.334 171.266 205.254 172.066C204.77 174.479 205.104 176.812 206.254 179.066C208.681 184.256 211.348 189.256 214.254 194.066C215.049 198.357 213.549 201.524 209.754 203.566C204.403 203.829 199.07 203.829 193.754 203.566C192.681 204.879 192.014 206.379 191.754 208.066C192.939 210.956 192.939 213.79 191.754 216.566C186.529 216.747 181.529 216.08 176.754 214.566C174.66 215.821 173.66 217.654 173.754 220.066C175.961 225.723 176.127 231.39 174.254 237.066C171.948 239.454 169.115 240.454 165.754 240.066C160.506 238.593 155.172 238.093 149.754 238.566C145.733 241.243 143.567 245.077 143.254 250.066C142.583 250.818 141.75 251.152 140.754 251.066C128.514 243.119 116.847 234.452 105.754 225.066C108.298 225.462 110.465 224.795 112.254 223.066C112.587 219.399 112.921 215.733 113.254 212.066C113.628 211.15 114.128 210.316 114.754 209.566C119.087 209.233 123.421 208.899 127.754 208.566C128.562 208.258 129.229 207.758 129.754 207.066C130.522 203.121 131.022 199.121 131.254 195.066C133.587 193.399 135.921 191.733 138.254 190.066C139.035 188.837 139.535 187.504 139.754 186.066C138.743 182.718 137.743 179.384 136.754 176.066C136.824 174.794 137.157 173.628 137.754 172.566C143.973 173.85 150.307 174.517 156.754 174.566C159.351 171.058 159.351 167.558 156.754 164.066C156.783 162.537 157.45 161.37 158.754 160.566C163.067 160.811 167.401 160.811 171.754 160.566C177.641 157.736 180.474 153.236 180.254 147.066C176.2 144.513 173.033 141.18 170.754 137.066C174.34 133.919 178.007 130.753 181.754 127.566C190.804 127.726 193.471 123.892 189.754 116.066C186.4 113.378 183.4 110.378 180.754 107.066Z" fill="#D1D1D1"/>
<path fill-rule="evenodd" clip-rule="evenodd" d="M65.7537 130.066C71.2697 137.831 78.6037 143.164 87.7537 146.066C85.1697 146.614 84.1697 148.281 84.7537 151.066C78.9377 143.402 71.2707 140.902 61.7537 143.566C63.4137 142.078 64.4137 140.245 64.7537 138.066C65.5187 135.47 65.8527 132.803 65.7537 130.066Z" fill="#965B66"/>
<path fill-rule="evenodd" clip-rule="evenodd" d="M227.754 133.066C259.809 144.833 271.642 167.5 263.254 201.066C255.76 225.244 241.593 244.411 220.754 258.566C202.859 268.271 183.859 271.604 163.754 268.566C155.903 262.869 148.236 257.036 140.754 251.066C141.75 251.152 142.583 250.818 143.254 250.066C143.567 245.077 145.733 241.243 149.754 238.566C155.172 238.093 160.506 238.593 165.754 240.066C169.115 240.454 171.948 239.454 174.254 237.066C176.127 231.39 175.961 225.723 173.754 220.066C173.66 217.654 174.66 215.821 176.754 214.566C181.529 216.08 186.529 216.747 191.754 216.566C192.939 213.79 192.939 210.956 191.754 208.066C192.014 206.379 192.681 204.879 193.754 203.566C199.07 203.829 204.403 203.829 209.754 203.566C213.549 201.524 215.049 198.357 214.254 194.066C211.348 189.256 208.681 184.256 206.254 179.066C205.104 176.812 204.77 174.479 205.254 172.066C209.334 171.266 213.501 170.766 217.754 170.566C219.147 169.395 219.981 167.895 220.254 166.066C221.157 164.865 222.323 164.031 223.754 163.566C228.739 163.785 233.739 163.785 238.754 163.566C242.506 159.646 242.672 155.479 239.254 151.066C233.116 146.438 229.282 140.438 227.754 133.066Z" fill="#AAAAAA"/>
<path fill-rule="evenodd" clip-rule="evenodd" d="M24.7537 177.068C36.0327 190.801 49.6993 193.634 65.7537 185.568C76.6457 176.901 79.8117 166.068 75.2537 153.068C72.4147 149.066 68.5807 146.733 63.7537 146.068C73.9857 142.709 80.8187 146.375 84.2537 157.068C86.0127 170.457 82.1797 181.957 72.7537 191.568C59.4327 200.393 46.2658 200.226 33.2537 191.068C29.6443 186.845 26.8109 182.178 24.7537 177.068Z" fill="#A9A9A9"/>
<path fill-rule="evenodd" clip-rule="evenodd" d="M117.754 145.066C117.483 148.702 115.817 151.536 112.754 153.566C104.53 157.123 98.1968 162.79 93.7538 170.566C91.8128 172.469 89.4798 173.302 86.7538 173.066C88.5108 165.482 87.8438 158.148 84.7538 151.066C84.1698 148.281 85.1698 146.614 87.7538 146.066C97.8808 147.725 107.881 147.392 117.754 145.066Z" fill="#C47D85"/>
<path fill-rule="evenodd" clip-rule="evenodd" d="M63.7536 146.066C68.5806 146.731 72.4146 149.064 75.2536 153.066C79.8116 166.066 76.6456 176.899 65.7536 185.566C49.6992 193.632 36.0326 190.799 24.7536 177.066C21.9799 168.991 22.3132 160.991 25.7536 153.066C34.4248 152.269 43.0915 151.436 51.7536 150.566C55.4566 148.212 59.4566 146.712 63.7536 146.066Z" fill="#F6F6F6"/>
</svg>
