<svg width="262" height="273" viewBox="0 0 262 273" fill="none" xmlns="http://www.w3.org/2000/svg">
<path opacity="0.866" fill-rule="evenodd" clip-rule="evenodd" d="M36.185 0.288448C41.99 -0.687352 46.99 0.812648 51.185 4.78845C70.688 4.28065 84.521 12.7806 92.685 30.2884C103.151 24.0427 113.818 23.7094 124.685 29.2884C139.912 21.1424 155.079 21.3091 170.185 29.7884C174.054 33.3222 177.554 37.1556 180.685 41.2884C186.871 53.5002 192.871 65.8335 198.685 78.2884C205.306 87.2444 212.306 95.9114 219.685 104.288C232.736 116.341 245.403 128.674 257.685 141.288C259.578 144.406 260.911 147.739 261.685 151.288C263.746 186.795 251.913 216.628 226.185 240.788C213.273 251.69 199.273 261.024 184.185 268.788C164.82 276.649 148.32 272.816 134.685 257.288C119.352 236.288 104.018 215.288 88.685 194.288C83.885 188.486 78.718 182.986 73.185 177.788C63.823 172.926 53.823 170.926 43.185 171.788C34.903 170.385 26.903 168.051 19.185 164.788C17.142 163.08 15.475 161.08 14.185 158.788C8.57198 157.171 4.07198 154.004 0.684985 149.288C-1.44402 141.52 1.38998 137.187 9.18498 136.288C9.82898 127.833 13.496 121 20.185 115.788C29.097 111.859 37.763 107.526 46.185 102.788C39.76 92.3714 32.593 82.5374 24.685 73.2884C14.509 52.8144 16.843 33.8144 31.685 16.2884C31.407 12.649 31.407 8.98235 31.685 5.28845C32.71 3.10145 34.21 1.43485 36.185 0.288448Z" fill="#333333"/>
<path fill-rule="evenodd" clip-rule="evenodd" d="M38.1851 6.28976C40.6741 6.08756 43.0081 6.58756 45.1851 7.78976C42.5121 8.79116 40.1781 10.2912 38.1851 12.2898C36.9911 10.2742 36.9911 8.27416 38.1851 6.28976Z" fill="#E3E3E3"/>
<path fill-rule="evenodd" clip-rule="evenodd" d="M78.185 62.2873C77.469 66.8213 76.802 71.4879 76.185 76.2873C67.742 83.1473 58.075 85.6473 47.185 83.7873C43.423 83.0703 40.089 81.5703 37.185 79.2873C19.869 59.5139 19.869 39.6805 37.185 19.7873C48.188 10.0587 60.188 8.72539 73.185 15.7873C80.968 20.2423 85.634 26.9089 87.185 35.7873C85.446 40.7682 83.28 45.6015 80.685 50.2873C79.215 54.1649 78.382 58.1649 78.185 62.2873Z" fill="#F5F5F5"/>
<path fill-rule="evenodd" clip-rule="evenodd" d="M213.185 106.289C215.772 113.527 213.939 119.194 207.685 123.289C207.186 127.303 207.352 131.303 208.185 135.289C208.436 139.292 206.769 142.125 203.185 143.789C198.852 144.122 194.518 144.456 190.185 144.789C188.984 145.692 188.15 146.858 187.685 148.289C187.352 152.622 187.018 156.956 186.685 161.289C182.6 163.984 178.1 165.484 173.185 165.789C170.521 168.458 168.687 171.625 167.685 175.289C164.429 177.218 160.929 177.718 157.185 176.789C154.373 173.888 151.373 171.221 148.185 168.789C143.891 166.403 140.058 166.903 136.685 170.289C136.011 176.709 136.511 183.042 138.185 189.289C138.204 194.432 135.871 197.932 131.185 199.789C122.396 198.577 117.896 202.41 117.685 211.289C116.176 213.708 114.01 214.708 111.185 214.289C107.71 210.685 104.71 206.685 102.185 202.289C97.9872 192.231 92.4872 182.898 85.6852 174.289C78.6802 165.204 69.5142 160.537 58.1852 160.289C49.8622 161.383 41.5292 162.383 33.1852 163.289C23.6872 161.958 17.8542 156.624 15.6852 147.289C12.7002 135.907 15.8672 126.74 25.1852 119.789C32.5182 116.456 39.8521 113.122 47.1852 109.789C50.2192 108.598 51.8862 106.431 52.1852 103.289C66.1082 95.2789 80.4411 94.4449 95.1852 100.789C108.322 103.219 119.488 99.7189 128.685 90.2889C140.843 96.8359 151.843 95.1689 161.685 85.2889C162.476 84.0439 162.976 82.7109 163.185 81.2889C165.619 76.2149 166.453 70.8818 165.685 65.2889C165.118 67.9566 164.618 70.6233 164.185 73.2889C151.91 84.3219 139.244 84.9889 126.185 75.2889C125.103 73.4499 124.27 71.4503 123.685 69.2889C123.352 63.9556 123.018 58.6222 122.685 53.2889C120.199 59.4805 119.699 65.8138 121.185 72.2889C117.365 80.8769 110.698 85.5439 101.185 86.2889C95.1122 86.5029 90.2792 84.1689 86.6852 79.2889C85.1392 76.1969 83.6392 73.1969 82.1852 70.2889C80.4882 55.529 85.4882 43.6956 97.1852 34.7889C106.627 29.9473 115.793 30.4473 124.685 36.2889C149.818 22.6826 168.818 28.6826 181.685 54.2889C187.873 74.3479 198.373 91.6819 213.185 106.289Z" fill="#F6F6F6"/>
<path fill-rule="evenodd" clip-rule="evenodd" d="M54.185 49.2872C67.482 48.0851 72.982 54.0851 70.685 67.2872C68 73.8442 63.166 76.0102 56.185 73.7872C49.545 68.9164 47.379 62.4164 49.685 54.2872C51.202 52.5477 52.702 50.881 54.185 49.2872Z" fill="#C67F87"/>
<path fill-rule="evenodd" clip-rule="evenodd" d="M78.1851 62.2891C76.5791 84.1711 86.5791 95.3381 108.185 95.7891C116.047 94.7751 122.547 91.2751 127.685 85.2891C136.289 91.0131 145.455 91.8461 155.185 87.7891C158.016 85.7881 160.682 83.6221 163.185 81.2891C162.976 82.7111 162.476 84.0441 161.685 85.2891C151.843 95.1691 140.843 96.8361 128.685 90.2891C119.488 99.7191 108.322 103.219 95.1851 100.789C80.4411 94.4451 66.1081 95.2791 52.1851 103.289C48.8371 94.2711 43.8371 86.2711 37.1851 79.2891C40.0891 81.5721 43.4231 83.0721 47.1851 83.7891C58.0751 85.6491 67.7421 83.1491 76.1851 76.2891C76.8021 71.4897 77.4691 66.8231 78.1851 62.2891Z" fill="#AAAAAA"/>
<path fill-rule="evenodd" clip-rule="evenodd" d="M82.1851 70.2891C83.6391 73.1971 85.1391 76.1971 86.6851 79.2891C90.2791 84.1691 95.1121 86.5031 101.185 86.2891C110.698 85.5441 117.365 80.8771 121.185 72.2891C122.116 76.3301 123.782 80.1631 126.185 83.7891C116.323 93.7511 104.99 95.7511 92.1851 89.7891C86.0511 84.6861 82.7171 78.1861 82.1851 70.2891Z" fill="#A8A8A8"/>
<path fill-rule="evenodd" clip-rule="evenodd" d="M164.185 73.2891C159.997 82.3131 152.83 86.9791 142.685 87.2891C133.924 87.6861 128.424 83.6861 126.185 75.2891C139.244 84.9891 151.91 84.3221 164.185 73.2891Z" fill="#A5A5A5"/>
<path fill-rule="evenodd" clip-rule="evenodd" d="M110.185 102.289C116.883 101.451 123.05 102.785 128.685 106.289C138.184 100.442 147.184 101.108 155.685 108.289C161.33 117.775 159.83 125.942 151.185 132.789C141.071 137.903 133.237 145.403 127.685 155.289C120.305 161.382 112.471 161.882 104.185 156.789C98.5211 150.73 96.6871 143.563 98.6851 135.289C99.1851 134.289 99.6851 133.289 100.185 132.289C93.4491 118.699 96.7821 108.699 110.185 102.289Z" fill="#C67E87"/>
<path fill-rule="evenodd" clip-rule="evenodd" d="M213.185 106.289C220.852 113.622 228.518 120.956 236.185 128.289C237.9 134.826 237.4 141.16 234.685 147.289C231.018 149.622 228.018 152.622 225.685 156.289C225.948 161.605 225.948 166.938 225.685 172.289C222.532 175.571 218.698 177.737 214.185 178.789C213.559 179.539 213.059 180.373 212.685 181.289C212.326 186.648 212.326 191.982 212.685 197.289C206.168 201.547 199.501 205.547 192.685 209.289C189.933 208.203 187.433 206.703 185.185 204.789C183.212 204.294 181.212 204.127 179.185 204.289C179.424 208.942 180.424 213.442 182.185 217.789C180.427 225.024 175.76 228.191 168.185 227.289C162.534 226.288 156.867 225.788 151.185 225.789C145.806 229.501 141.472 234.168 138.185 239.789C136.468 241.348 134.468 242.181 132.185 242.289C125.197 232.994 118.197 223.661 111.185 214.289C114.01 214.708 116.176 213.708 117.685 211.289C117.896 202.41 122.396 198.577 131.185 199.789C135.871 197.932 138.204 194.432 138.185 189.289C136.511 183.042 136.011 176.709 136.685 170.289C140.058 166.903 143.891 166.403 148.185 168.789C151.373 171.221 154.373 173.888 157.185 176.789C160.929 177.718 164.429 177.218 167.685 175.289C168.687 171.625 170.521 168.458 173.185 165.789C178.1 165.484 182.6 163.984 186.685 161.289C187.018 156.956 187.352 152.622 187.685 148.289C188.15 146.858 188.984 145.692 190.185 144.789C194.518 144.456 198.852 144.122 203.185 143.789C206.769 142.125 208.436 139.292 208.185 135.289C207.352 131.303 207.186 127.303 207.685 123.289C213.939 119.194 215.772 113.527 213.185 106.289Z" fill="#D1D1D1"/>
<path fill-rule="evenodd" clip-rule="evenodd" d="M38.1851 129.289C45.0161 127.84 50.5161 129.84 54.6851 135.289C55.7391 144.237 51.7391 148.904 42.6851 149.289C33.9291 149.109 30.2621 144.775 31.6851 136.289C33.3791 133.431 35.5461 131.098 38.1851 129.289Z" fill="#C78089"/>
<path fill-rule="evenodd" clip-rule="evenodd" d="M236.185 128.289C242.85 133.454 248.683 139.454 253.685 146.289C258.713 176.267 251.379 202.934 231.685 226.289C216.76 241.883 199.593 254.383 180.185 263.789C164.166 269.577 150.666 266.077 139.685 253.289C137.165 249.565 134.665 245.898 132.185 242.289C134.468 242.181 136.468 241.348 138.185 239.789C141.472 234.168 145.806 229.501 151.185 225.789C156.867 225.788 162.534 226.288 168.185 227.289C175.76 228.191 180.427 225.024 182.185 217.789C180.424 213.442 179.424 208.942 179.185 204.289C181.212 204.127 183.212 204.294 185.185 204.789C187.433 206.703 189.933 208.203 192.685 209.289C199.501 205.547 206.168 201.547 212.685 197.289C212.326 191.982 212.326 186.648 212.685 181.289C213.059 180.373 213.559 179.539 214.185 178.789C218.698 177.737 222.532 175.571 225.685 172.289C225.948 166.938 225.948 161.605 225.685 156.289C228.018 152.622 231.018 149.622 234.685 147.289C237.4 141.16 237.9 134.826 236.185 128.289Z" fill="#AAAAAA"/>
<path fill-rule="evenodd" clip-rule="evenodd" d="M7.18505 142.289C8.18505 142.289 9.18505 142.289 10.1851 142.289C10.3491 144.976 10.1821 147.643 9.68505 150.289C6.36005 148.31 5.52705 145.644 7.18505 142.289Z" fill="#E0E0E0"/>
<path fill-rule="evenodd" clip-rule="evenodd" d="M102.185 202.289C96.7961 195.872 91.6301 189.205 86.6851 182.289C75.4161 169.529 61.2501 164.029 44.1851 165.789C40.3381 165.156 36.6711 164.322 33.1851 163.289C41.5291 162.383 49.8621 161.383 58.1851 160.289C69.5141 160.537 78.6801 165.204 85.6851 174.289C92.4871 182.898 97.9871 192.231 102.185 202.289Z" fill="#A8A8A8"/>
</svg>
