<svg width="110" height="34" viewBox="0 0 110 34" fill="none" xmlns="http://www.w3.org/2000/svg">
<path fill-rule="evenodd" clip-rule="evenodd" d="M63.125 13.5593L63.5308 13.911L64.0057 13.0784L64.7661 11.819L65.1508 11.1728L64.7631 10.8271L63.125 13.5593Z" fill="white"/>
<path fill-rule="evenodd" clip-rule="evenodd" d="M61.3672 12.2658L61.815 12.5784L62.1998 11.6977L62.5244 10.9914L62.849 10.2851L63.1736 9.57872L62.7017 9.32324L61.3672 12.2658Z" fill="white"/>
<path fill-rule="evenodd" clip-rule="evenodd" d="M59.3828 11.0322L59.8607 11.3087L60.9398 8.11965L60.4679 7.90625L59.5391 10.5873L59.3828 11.0322Z" fill="white"/>
<path fill-rule="evenodd" clip-rule="evenodd" d="M57.2031 10.0087L57.7171 10.2251L58.4896 6.82864L58.2461 6.72945L57.9756 6.61523L57.2031 10.0087Z" fill="white"/>
<path fill-rule="evenodd" clip-rule="evenodd" d="M34.0938 3.78168L34.8512 4.95991L36.4021 7.27729L37.1866 8.46754L37.917 8.25113L37.1866 7.09094L36.4141 5.93074L34.8692 3.61035L34.0938 3.78168Z" fill="white"/>
<path fill-rule="evenodd" clip-rule="evenodd" d="M30.0547 4.9481L30.4935 5.5342L30.9865 6.1143L31.2239 6.39383L33.9621 9.58587L34.6925 9.32738L33.7607 8.15516L32.7748 6.99196L31.804 5.85581L30.8272 4.68359L30.0547 4.9481Z" fill="white"/>
<path fill-rule="evenodd" clip-rule="evenodd" d="M25.9688 6.61804L28.3673 8.86028L30.8229 11.0875L31.5112 10.7028L30.339 9.59367L29.4794 8.77612L29.1578 8.4996L26.7833 6.27539L25.9688 6.61804Z" fill="white"/>
<path fill-rule="evenodd" clip-rule="evenodd" d="M22.0625 8.72571L22.7057 9.28477L27.6891 12.9367L28.4225 12.5069L28.0949 12.2333L24.2206 9.35991L22.7929 8.2959L22.0625 8.72571Z" fill="white"/>
<path fill-rule="evenodd" clip-rule="evenodd" d="M14.875 14.559L15.8068 14.9828L21.3613 17.4204L22.5575 17.9404L23.1196 17.2761L18.3075 15.1451L15.5302 13.9248L14.875 14.559Z" fill="white"/>
<path fill-rule="evenodd" clip-rule="evenodd" d="M11.9219 18.1396L12.4088 18.2929L12.9258 18.4672L20.446 20.8777L20.6714 20.5231L20.9209 20.1474L20.0673 19.8738L16.5416 18.7167L12.523 17.4092L11.9219 18.1396Z" fill="white"/>
<path fill-rule="evenodd" clip-rule="evenodd" d="M9.51562 22.0919L17.7392 23.7961L18.7551 23.9734L19.1218 23.222L12.1125 21.7312L9.90336 21.2773L9.51562 22.0919Z" fill="white"/>
<path fill-rule="evenodd" clip-rule="evenodd" d="M64.8516 15.0794L66.2222 16.3628L66.646 15.7346L68.8852 12.6477L68.5936 12.3352L67.6408 11.4004" fill="white"/>
<path fill-rule="evenodd" clip-rule="evenodd" d="M7.79688 26.3059L8.35593 26.351L8.93904 26.4111L12.3535 26.7778L17.4361 27.3008L17.7036 26.5253L13.8593 26.0865L8.05536 25.4463L7.79688 26.3059Z" fill="white"/>
<path fill-rule="evenodd" clip-rule="evenodd" d="M53.9375 8.63185L56.0685 9.41933L56.1587 8.57474L56.5645 5.11519L56.6486 4.42388L56.7298 3.73257L55.8882 3.41097L54.5988 2.9541L54.4184 4.42689L54.1629 6.4948L53.9375 8.63185Z" fill="white"/>
<path fill-rule="evenodd" clip-rule="evenodd" d="M35.4688 0.213406L37.3293 3.94046L38.2731 5.78895L39.3401 7.88693L42.1324 7.41503L38.5195 0H38.4895L35.4688 0.213406Z" fill="white"/>
<path fill-rule="evenodd" clip-rule="evenodd" d="M13.2109 10.0154L17.2356 12.2637L18.5971 13.0091L19.2554 13.3818L21.9635 14.8877L24.1697 16.132L26.4871 13.9769L19.2884 9.73891L16.0483 7.82129L14.6657 8.93339L13.2109 10.0154Z" fill="white"/>
<path fill-rule="evenodd" clip-rule="evenodd" d="M0 33.3304H16.1616L16.9912 28.7978H15.6596L14.7158 28.7557L8.91487 28.6265L7.97108 28.5844L6.98221 28.5814L5.05857 28.5303L3.62787 28.5003L3.15898 28.4552H2.17011L1.22331 28.4131L0 33.2973V33.3124V33.3304Z" fill="white"/>
<path d="M32.0178 33.1508L31.4888 31.7622H29.7876L29.2646 33.1508H28.7656L30.4428 28.7686H30.8576L32.5257 33.1508H32.0178ZM31.3355 31.3054L30.8426 29.9528C30.7794 29.7815 30.7133 29.5711 30.6442 29.3216C30.6021 29.514 30.542 29.7244 30.4608 29.9528L29.9619 31.3054H31.3355Z" fill="white"/>
<path d="M33.1094 28.7793H34.3086C34.8707 28.7793 35.2795 28.8665 35.529 29.0378C35.7814 29.2121 35.9077 29.4856 35.9077 29.8583C35.9077 30.1168 35.8385 30.3302 35.6973 30.4986C35.556 30.6669 35.3516 30.7751 35.0841 30.8262V30.8562C35.7273 30.9704 36.0489 31.3191 36.0489 31.9022C36.0489 32.293 35.9197 32.5965 35.6642 32.8159C35.4087 33.0353 35.048 33.1436 34.5882 33.1436H33.1094V28.7793ZM33.6023 30.6488H34.4138C34.7625 30.6488 35.012 30.5917 35.1653 30.4805C35.3186 30.3693 35.3937 30.1799 35.3937 29.9124C35.3937 29.669 35.3095 29.4916 35.1382 29.3834C34.9669 29.2752 34.6964 29.2211 34.3267 29.2211H33.6023V30.6488ZM33.6023 31.0786V32.7107H34.486C34.8286 32.7107 35.0871 32.6416 35.2584 32.5063C35.4328 32.3711 35.5169 32.1577 35.5169 31.8661C35.5169 31.5956 35.4298 31.3973 35.2524 31.268C35.0751 31.1418 34.8046 31.0756 34.4439 31.0756H33.6023V31.0786Z" fill="white"/>
<path d="M38.2662 33.1465H37.7732V29.2331H36.4297V28.7822H39.6097V29.2331H38.2662V33.1465Z" fill="white"/>
<path d="M43.9296 30.9562C43.9296 31.6565 43.7583 32.2036 43.4157 32.6033C43.073 33.0031 42.5951 33.2044 41.9849 33.2044C41.3598 33.2044 40.8789 33.0091 40.5392 32.6153C40.1996 32.2216 40.0312 31.6685 40.0312 30.9502C40.0312 30.2408 40.2026 29.6878 40.5422 29.2971C40.8819 28.9063 41.3658 28.7109 41.994 28.7109C42.6041 28.7109 43.079 28.9093 43.4217 29.3091C43.7583 29.7088 43.9296 30.2559 43.9296 30.9562ZM40.5482 30.9562C40.5482 31.5483 40.6715 31.9962 40.9149 32.3027C41.1584 32.6093 41.5161 32.7596 41.9819 32.7596C42.4508 32.7596 42.8055 32.6063 43.046 32.3027C43.2864 31.9992 43.4066 31.5483 43.4066 30.9562C43.4066 30.3701 43.2864 29.9252 43.049 29.6187C42.8115 29.3151 42.4568 29.1648 41.988 29.1648C41.5191 29.1648 41.1614 29.3181 40.9149 29.6247C40.6685 29.9312 40.5482 30.3731 40.5482 30.9562Z" fill="white"/>
<path d="M46.7536 33.1464L45.3138 29.2781H45.2898C45.3168 29.5847 45.3319 29.9484 45.3319 30.3722V33.1494H44.875V28.7852H45.6174L46.9609 32.386H46.985L48.3406 28.7852H49.077V33.1494H48.584V30.3361C48.584 30.0145 48.5991 29.6628 48.6261 29.2841H48.6021L47.1503 33.1464H46.7536Z" fill="white"/>
<path d="M53.9296 30.9562C53.9296 31.6565 53.7583 32.2036 53.4157 32.6033C53.073 33.0031 52.5951 33.2044 51.9849 33.2044C51.3598 33.2044 50.8789 33.0091 50.5392 32.6153C50.1996 32.2216 50.0312 31.6685 50.0312 30.9502C50.0312 30.2408 50.2026 29.6878 50.5422 29.2971C50.8819 28.9063 51.3658 28.7109 51.994 28.7109C52.6041 28.7109 53.079 28.9093 53.4217 29.3091C53.7583 29.7088 53.9296 30.2559 53.9296 30.9562ZM50.5482 30.9562C50.5482 31.5483 50.6715 31.9962 50.9149 32.3027C51.1584 32.6093 51.5161 32.7596 51.9819 32.7596C52.4508 32.7596 52.8055 32.6063 53.046 32.3027C53.2864 31.9992 53.4066 31.5483 53.4066 30.9562C53.4066 30.3701 53.2864 29.9252 53.049 29.6187C52.8115 29.3151 52.4568 29.1648 51.988 29.1648C51.5191 29.1648 51.1614 29.3181 50.9149 29.6247C50.6715 29.9312 50.5482 30.3731 50.5482 30.9562Z" fill="white"/>
<path d="M57.6252 31.8722C57.6252 32.305 57.499 32.6266 57.2495 32.834C57 33.0414 56.6213 33.1436 56.1163 33.1436H54.875V28.7793H57.3757V29.2302H55.3679V30.6428H56.0262C56.3989 30.6428 56.7025 30.6879 56.9369 30.7751C57.1713 30.8622 57.3427 30.9945 57.4569 31.1688C57.5711 31.3432 57.6252 31.5776 57.6252 31.8722ZM55.3679 32.7077H56.0622C56.4289 32.7077 56.6964 32.6416 56.8648 32.5124C57.0331 32.3831 57.1172 32.1697 57.1172 31.8722C57.1172 31.5896 57.0331 31.3882 56.8618 31.268C56.6904 31.1478 56.3959 31.0877 55.9721 31.0877H55.3709V32.7077H55.3679Z" fill="white"/>
<path d="M58.5156 28.7793H58.9785V31.2079C58.9785 31.6557 58.9635 32.0615 58.9364 32.4222H58.9605L61.341 28.7793H61.882V33.1436H61.4191V30.739C61.4191 30.3392 61.4341 29.9184 61.4672 29.4796H61.4402L59.0566 33.1436H58.5156V28.7793Z" fill="white"/>
<path d="M66.0618 33.1465H65.5688V29.2331H64.1892L64.099 29.9484C63.9818 30.9012 63.8766 31.5986 63.7864 32.0404C63.6963 32.4822 63.5791 32.7888 63.4318 32.9631C63.2845 33.1375 63.0891 33.2216 62.8457 33.2156C62.7014 33.2156 62.5752 33.1916 62.4609 33.1405V32.7137C62.5661 32.7648 62.6743 32.7918 62.7886 32.7918C62.8907 32.7918 62.9809 32.7497 63.0561 32.6626C63.1312 32.5754 63.2003 32.4251 63.2605 32.2117C63.3206 31.9983 63.3927 31.5925 63.4829 30.9944C63.573 30.3963 63.6722 29.6599 63.7804 28.7822H66.0618V33.1465Z" fill="white"/>
<path d="M67.2344 28.7793H67.6973V31.2079C67.6973 31.6557 67.6822 32.0615 67.6552 32.4222H67.6792L70.0597 28.7793H70.6007V33.1436H70.1379V30.739C70.1379 30.3392 70.1529 29.9184 70.186 29.4796H70.1589L67.7754 33.1436H67.2344V28.7793Z" fill="white"/>
<path d="M75.113 29.1696C74.6471 29.1696 74.2774 29.3289 74.0099 29.6475C73.7394 29.9661 73.6041 30.4049 73.6041 30.961C73.6041 31.5321 73.7334 31.9739 73.9949 32.2865C74.2564 32.5991 74.6261 32.7524 75.107 32.7524C75.4015 32.7524 75.7412 32.6983 76.1199 32.5871V33.0319C75.8253 33.1461 75.4646 33.2032 75.0318 33.2032C74.4066 33.2032 73.9257 33.0079 73.5861 32.6171C73.2464 32.2264 73.0781 31.6733 73.0781 30.955C73.0781 30.5041 73.1593 30.1104 73.3246 29.7737C73.4869 29.4341 73.7243 29.1756 74.0339 28.9923C74.3435 28.8089 74.7042 28.7188 75.125 28.7188C75.5698 28.7188 75.9576 28.8029 76.2912 28.9682L76.0808 29.404C75.7562 29.2478 75.4346 29.1696 75.113 29.1696Z" fill="white"/>
<path d="M81.7587 33.1465H81.2658V29.2331H79.0867V33.1465H78.5938V28.7822H81.7587V33.1465Z" fill="white"/>
<path d="M85.6198 30.0507C85.6198 30.4925 85.4725 30.8322 85.181 31.0696C84.8894 31.3071 84.4686 31.4273 83.9216 31.4273H83.4226V33.1436H82.9297V28.7793H84.0298C85.0908 28.7793 85.6198 29.2031 85.6198 30.0507ZM83.4226 30.9915H83.8675C84.3033 30.9915 84.6219 30.9193 84.8173 30.7721C85.0126 30.6278 85.1118 30.3934 85.1118 30.0747C85.1118 29.7862 85.0186 29.5698 84.8353 29.4285C84.6519 29.2873 84.3664 29.2151 83.9757 29.2151H83.4256V30.9915H83.4226Z" fill="white"/>
<path d="M90.1874 30.9562C90.1874 31.6565 90.0161 32.2036 89.6735 32.6033C89.3308 33.0031 88.8529 33.2044 88.2428 33.2044C87.6176 33.2044 87.1367 33.0091 86.797 32.6153C86.4574 32.2216 86.2891 31.6685 86.2891 30.9502C86.2891 30.2408 86.4604 29.6878 86.8 29.2971C87.1397 28.9063 87.6236 28.7109 88.2518 28.7109C88.8619 28.7109 89.3368 28.9093 89.6795 29.3091C90.0161 29.7088 90.1874 30.2559 90.1874 30.9562ZM86.806 30.9562C86.806 31.5483 86.9293 31.9962 87.1727 32.3027C87.4162 32.6093 87.7739 32.7596 88.2398 32.7596C88.7086 32.7596 89.0633 32.6063 89.3038 32.3027C89.5442 31.9992 89.6645 31.5483 89.6645 30.9562C89.6645 30.3701 89.5442 29.9252 89.3068 29.6187C89.0693 29.3151 88.7147 29.1648 88.2458 29.1648C87.7769 29.1648 87.4192 29.3181 87.1727 29.6247C86.9263 29.9312 86.806 30.3731 86.806 30.9562Z" fill="white"/>
<path d="M93.883 31.8722C93.883 32.305 93.7568 32.6266 93.5073 32.834C93.2578 33.0414 92.8791 33.1436 92.3742 33.1436H91.1328V28.7793H93.6335V29.2302H91.6257V30.6428H92.284C92.6567 30.6428 92.9603 30.6879 93.1947 30.7751C93.4292 30.8622 93.6005 30.9945 93.7147 31.1688C93.8289 31.3432 93.883 31.5776 93.883 31.8722ZM91.6227 32.7077H92.3171C92.6837 32.7077 92.9513 32.6416 93.1196 32.5124C93.2879 32.3831 93.369 32.1697 93.369 31.8722C93.369 31.5896 93.2849 31.3882 93.1136 31.268C92.9422 31.1478 92.6477 31.0877 92.2239 31.0877H91.6227V32.7077Z" fill="white"/>
<path d="M97.1389 33.1465H94.7734V28.7822H97.1389V29.2331H95.2664V30.6397H97.0247V31.0876H95.2664V32.6926H97.1389V33.1465Z" fill="white"/>
<path d="M100.444 28.7793V29.2362H98.5711V33.1436H98.0781V28.7793H100.444Z" fill="white"/>
<path d="M104.852 30.9562C104.852 31.6565 104.68 32.2036 104.338 32.6033C103.995 33.0031 103.517 33.2044 102.907 33.2044C102.282 33.2044 101.801 33.0091 101.461 32.6153C101.121 32.2216 100.953 31.6685 100.953 30.9502C100.953 30.2408 101.124 29.6878 101.464 29.2971C101.804 28.9063 102.288 28.7109 102.916 28.7109C103.526 28.7109 104.001 28.9093 104.344 29.3091C104.68 29.7088 104.852 30.2559 104.852 30.9562ZM101.47 30.9562C101.47 31.5483 101.593 31.9962 101.837 32.3027C102.08 32.6093 102.438 32.7596 102.904 32.7596C103.373 32.7596 103.727 32.6063 103.968 32.3027C104.208 31.9992 104.329 31.5483 104.329 30.9562C104.329 30.3701 104.208 29.9252 103.971 29.6187C103.733 29.3151 103.379 29.1648 102.91 29.1648C102.441 29.1648 102.083 29.3181 101.837 29.6247C101.593 29.9312 101.47 30.3731 101.47 30.9562Z" fill="white"/>
<path d="M107.675 33.1464L106.236 29.2781H106.212C106.239 29.5847 106.254 29.9484 106.254 30.3722V33.1494H105.797V28.7852H106.542L107.886 32.386H107.91L109.265 28.7852H110.002V33.1494H109.509V30.3361C109.509 30.0145 109.521 29.6628 109.551 29.2841H109.527L108.075 33.1464H107.675Z" fill="white"/>
<path fill-rule="evenodd" clip-rule="evenodd" d="M38.8335 17.0278L43.2398 17.0338L36.9219 12.3359L38.8335 17.0278Z" fill="white"/>
<path fill-rule="evenodd" clip-rule="evenodd" d="M72.0832 25.7854C73.6882 25.7854 73.4598 25.9086 73.4538 25.3375C73.4508 24.8416 73.5109 21.6766 73.4718 21.4512H73.55C73.58 21.6045 73.6401 21.7097 73.6942 21.8389L74.6831 24.2885C74.8334 24.6943 74.6831 24.6282 75.5247 24.6282C75.6539 24.6282 75.8433 24.0421 75.9154 23.8707C76.0086 23.6453 76.8562 21.5383 76.9584 21.4542L76.9614 22.5152C76.9644 22.9841 76.9043 25.4547 76.9614 25.7884C78.5153 25.7884 78.332 25.8906 78.338 25.4758L78.3801 21.1476C78.3861 20.8981 78.3801 20.5945 78.3891 20.3601C78.4011 20.0295 78.4582 19.6718 78.2809 19.6718H76.6188C76.4444 19.6718 76.1348 20.6276 76.0567 20.811L75.149 22.8458C75.1189 22.6655 75.0017 22.404 74.9416 22.2567L74.2533 20.5194C74.1751 20.309 74.103 20.1707 74.0279 19.9513C73.9136 19.6177 73.9647 19.6658 73.565 19.6718C73.0901 19.6778 72.6092 19.6718 72.1343 19.6718C72.1042 20.1527 72.1222 20.6637 72.1102 21.1716C72.0892 21.5804 72.0321 25.4788 72.0832 25.7854ZM76.9404 21.37L76.9524 21.382C76.9554 21.382 76.9374 21.376 76.9404 21.37Z" fill="white"/>
<path fill-rule="evenodd" clip-rule="evenodd" d="M79.7611 23.423C80.3262 26.7292 85.0331 26.6811 85.544 23.6033C86.0219 20.7088 83.9871 19.0497 81.6036 19.7079C80.245 20.0837 79.4545 21.6105 79.7611 23.423ZM82.6946 24.7395C80.9724 24.7395 80.8401 21.7368 81.9011 20.9523C82.1867 20.7419 82.7427 20.6397 83.1816 20.8411C84.3147 21.3581 84.3237 23.8919 83.428 24.505C83.2627 24.6192 82.9862 24.7395 82.6946 24.7395Z" fill="white"/>
<path fill-rule="evenodd" clip-rule="evenodd" d="M92.2241 23.4223C92.5878 25.5534 94.6497 26.2567 96.1856 25.7487C96.7928 25.5473 96.895 25.4181 97.2617 25.0785C97.421 24.9312 97.3939 24.9372 97.5141 24.7659C97.9109 24.2008 98.1303 23.3562 98.0762 22.6018L98.0221 22.0277C98.0071 21.9465 97.9049 21.5738 97.8658 21.4686C97.6885 20.9607 97.4029 20.594 97.0122 20.2573C95.9241 19.3226 94.2049 19.4007 93.2791 20.092C92.7231 20.5068 92.3804 21.129 92.2271 21.8383C92.1971 21.9796 92.179 22.1539 92.167 22.3162C92.143 22.6468 92.158 23.0316 92.2241 23.4223ZM95.1577 24.7388C93.4114 24.7388 93.3032 21.6971 94.3852 20.9366C94.6738 20.7322 95.2539 20.6421 95.6716 20.8525C96.2968 21.1681 96.408 21.8503 96.5042 22.4154C96.6064 23.0135 96.4682 23.5936 96.3059 23.9663C96.1135 24.4202 95.7167 24.7388 95.1577 24.7388Z" fill="white"/>
<path fill-rule="evenodd" clip-rule="evenodd" d="M99.3984 25.7842C101.124 25.7842 100.85 25.9224 100.865 25.2522L100.877 23.7072C100.874 23.4457 100.832 23.4608 101.13 23.4608C102.131 23.4608 102.173 24.0168 102.672 25.0989C102.801 25.3814 102.924 25.7812 103.071 25.7812H104.427C104.379 25.5317 103.522 23.7042 103.345 23.4457C103.21 23.2474 103.107 23.1331 102.918 23.0249L102.738 22.9167C103.907 22.8175 104.093 21.0682 103.294 20.2387C102.542 19.4572 100.808 19.6646 99.4375 19.6646L99.3984 25.7842ZM101.448 22.3757H100.907L100.913 20.8278C102.061 20.8278 102.191 20.8368 102.323 21.6033C102.41 22.1232 101.986 22.3757 101.448 22.3757Z" fill="white"/>
<path fill-rule="evenodd" clip-rule="evenodd" d="M35.2072 25.7854H36.677L36.7071 23.462C37.9244 23.462 37.8522 23.6935 38.4534 24.998C38.5736 25.2625 38.7058 25.533 38.805 25.7854C40.2027 25.7854 40.3349 25.8967 40.1846 25.5781L39.8149 24.7575C39.6466 24.3818 39.4993 24.0391 39.316 23.6815C39.1988 23.456 39.0064 23.1825 38.79 23.0533C38.7329 23.0202 38.7269 23.0232 38.6818 22.9992C38.6728 22.9962 38.6638 22.9902 38.6547 22.9841C38.6457 22.9811 38.6367 22.9751 38.6277 22.9691C38.5495 22.924 38.5976 22.9541 38.5525 22.921C39.3491 22.8549 39.7218 22.0704 39.5655 21.1417C39.3731 20.0085 38.4053 19.6719 37.2631 19.6719H35.3665C35.2283 19.6719 35.2613 19.8222 35.2613 19.9454C35.2643 20.0957 35.2583 20.2219 35.2583 20.3391L35.2343 22.6685C35.2283 23.2036 35.2222 23.7175 35.2222 24.2105C35.2222 24.496 35.2192 24.7124 35.2132 24.995C35.2102 25.1452 35.2162 25.2474 35.2162 25.3947C35.2132 25.5119 35.1952 25.6562 35.2072 25.7854ZM36.7161 22.377C36.683 22.0133 36.7762 21.1477 36.7221 20.8291C37.3593 20.8291 38.0205 20.7269 38.1438 21.4482C38.3181 22.4792 37.3382 22.377 36.7161 22.377Z" fill="white"/>
<path fill-rule="evenodd" clip-rule="evenodd" d="M56.875 25.7856H58.3839C58.3929 25.6293 58.5822 25.1364 58.6484 24.92C58.6814 24.8118 58.6904 24.6615 58.8107 24.6615H60.9778C61.0168 24.8959 61.083 25.0372 61.1371 25.2145C61.2032 25.4249 61.2483 25.6022 61.3234 25.7826H62.7151L62.2041 24.2497C61.8735 23.2728 60.9567 20.3874 60.6652 19.666H59.003L57.939 22.7258C57.8909 22.8611 57.8458 22.9452 57.7947 23.0985L57.398 24.2467C57.2988 24.5593 56.89 25.5872 56.875 25.7856ZM59.8476 21.2861C59.9979 21.6227 60.1091 22.0345 60.2203 22.4042C60.2654 22.5515 60.5389 23.4532 60.596 23.5373H59.1263L59.8476 21.2861Z" fill="white"/>
<path fill-rule="evenodd" clip-rule="evenodd" d="M46.5429 21.6817C46.8945 23.7436 49.3923 22.9561 49.5636 23.966C49.6537 24.498 49.0917 24.7415 48.6108 24.7415C47.5888 24.7415 46.7472 24.1674 46.5699 24.1223C46.606 24.5461 46.5308 25.051 46.5699 25.4779C46.6931 25.4869 46.9426 25.5891 47.0659 25.6281C48.2471 26.0038 49.6057 26.064 50.4773 25.3787C50.9762 24.9879 51.1055 24.3958 50.9732 23.6203C50.844 22.8629 50.2759 22.4571 49.6838 22.2377C49.3772 22.1235 49.0195 22.0393 48.71 21.9642C48.3343 21.874 47.9525 21.7899 47.8894 21.4142C47.7241 20.4403 49.6057 20.6838 50.6366 21.1827L50.6456 19.8662L49.9243 19.7069C49.1788 19.5627 48.3222 19.5025 47.682 19.7129C46.9186 19.9594 46.3595 20.6177 46.5429 21.6817Z" fill="white"/>
<path fill-rule="evenodd" clip-rule="evenodd" d="M105.494 21.6429C105.846 23.7048 108.365 23.0466 108.509 23.8882C108.689 24.9492 107.283 24.7869 106.498 24.5404C106.152 24.4322 105.662 24.1527 105.53 24.1196C105.548 24.2369 105.539 25.379 105.521 25.4361C106.555 25.9381 108.509 26.1785 109.438 25.376C110.237 24.6847 110.228 23.1127 109.065 22.4244C108.193 21.9074 106.961 22.0637 106.85 21.4115C106.717 20.6421 107.998 20.6601 108.68 20.8374C109.495 21.0478 109.594 21.3003 109.615 21.0659V20.4677C109.618 20.2754 109.639 20.071 109.606 19.8726L109.603 19.8636L108.888 19.7013C107.995 19.5029 106.781 19.4909 106.11 19.9868C106.017 20.0559 105.984 20.104 105.903 20.1732C105.557 20.4737 105.404 21.1079 105.494 21.6429Z" fill="white"/>
<path fill-rule="evenodd" clip-rule="evenodd" d="M28.9286 23.4234C29.1781 24.8872 30.3623 25.9001 31.8261 25.9001C32.4032 25.9001 33.1817 25.7047 33.5995 25.5304C33.7828 25.4553 33.6986 25.5064 33.7137 24.9653L33.7257 24.1177C33.3139 24.3552 32.7278 24.7369 32.0515 24.7369C29.8063 24.7369 29.6981 20.3817 32.4483 20.7604C32.6647 20.7904 32.8871 20.8776 33.0885 20.9708C33.4492 21.1391 33.4582 21.1902 33.6716 21.2924C33.6475 21.0249 33.7137 20.3426 33.6866 20.015C33.4732 19.9669 32.4753 19.4649 31.6999 19.5701C30.9905 19.6663 30.4856 19.7324 29.9716 20.1803C29.7522 20.3696 29.5869 20.5049 29.4396 20.7514L29.0729 21.4637C28.8625 21.9626 28.8294 22.8463 28.9286 23.4234Z" fill="white"/>
<path fill-rule="evenodd" clip-rule="evenodd" d="M42.1677 23.2308L42.1737 24.4901C42.1707 24.7757 42.1376 25.5511 42.1797 25.7826C43.8419 25.7826 43.6405 25.9058 43.6345 25.3738C43.6315 25.1935 43.6405 25.0221 43.6405 24.8809L43.6585 23.375C43.6615 23.0895 44.0763 22.5395 44.2266 22.308L45.0501 20.9615C45.1944 20.724 45.3237 20.5196 45.4649 20.2912L45.7775 19.7892C45.8136 19.7231 45.8497 19.666 45.7024 19.666H44.1935C44.0793 19.666 43.5683 20.6639 43.5082 20.7661C43.388 20.9735 43.3008 21.1418 43.1806 21.3462C43.1055 21.4754 42.9161 21.8421 42.8349 21.9113C42.7267 21.6438 41.6267 19.9215 41.5245 19.666H40.0547C40.1809 19.9936 42.1406 23.0805 42.1677 23.2308Z" fill="white"/>
<path fill-rule="evenodd" clip-rule="evenodd" d="M51.9431 20.9074H53.8006C53.7735 20.9945 53.7675 21.9503 53.7765 22.1096C53.7856 22.326 53.7705 22.5154 53.7705 22.6988C53.7705 22.9302 53.7735 23.0985 53.7675 23.3239C53.7525 23.7417 53.7645 24.1204 53.7555 24.5352L53.7465 25.7826H55.2163C55.2343 25.491 55.2283 25.1484 55.2313 24.8388C55.2343 24.4992 55.2283 24.1986 55.2373 23.883L55.2583 21.4845C55.2553 20.7631 55.1682 20.9014 55.7002 20.9044C55.8925 20.9044 56.0879 20.9044 56.2803 20.9044C56.4606 20.9044 56.644 20.9044 56.8243 20.9074C57.1008 20.9104 57.1339 20.9254 57.1369 20.6789C57.1429 20.4265 57.1549 19.9155 57.1129 19.666H52.0453C51.886 19.666 51.9371 19.9696 51.9371 20.2371C51.934 20.4415 51.901 20.6549 51.9431 20.9074Z" fill="white"/>
<path fill-rule="evenodd" clip-rule="evenodd" d="M86.4118 20.9072H88.1521V22.1305C88.1461 22.5543 88.1431 22.933 88.1431 23.3478C88.1461 23.7356 88.1371 24.1864 88.1281 24.5561L88.1341 25.7854H89.4866C89.6159 25.7854 89.5888 25.7043 89.5918 25.5781L89.5979 24.6583C89.5949 24.2315 89.6159 23.8167 89.6129 23.414L89.6309 21.5444C89.6369 21.3521 89.655 21.1056 89.6219 20.9102H91.4013C91.5606 20.9102 91.5095 20.6036 91.5095 20.3421C91.5095 20.1678 91.5335 19.8703 91.5005 19.6719H86.3156L86.2976 20.6517C86.2916 20.796 86.2525 20.9072 86.4118 20.9072Z" fill="white"/>
<path fill-rule="evenodd" clip-rule="evenodd" d="M63.8411 25.7844H67.8267C67.8447 25.5079 67.8687 24.8887 67.8146 24.5852H65.4161C65.2298 24.5852 65.3049 24.3808 65.3049 23.9269L65.353 19.7941C65.338 19.6348 65.3169 19.6678 64.812 19.6709C64.5024 19.6709 64.1928 19.6709 63.8832 19.6709C63.8141 20.786 63.8531 22.9591 63.8321 24.2215C63.8261 24.495 63.8201 24.7174 63.8201 24.9729C63.8201 25.2344 63.793 25.4929 63.8411 25.7844Z" fill="white"/>
<path d="M42.0391 3.46875H42.8536L44.4917 7.26193L43.59 7.301L42.0391 3.46875Z" fill="white"/>
<path d="M45.6953 3.67188H46.4077L47.5258 7.36586L46.7353 7.30876L45.6953 3.67188Z" fill="white"/>
<path d="M49.1562 3.92578L49.8866 4.13919L50.1842 7.71295L49.4628 7.58972L49.1562 3.92578Z" fill="white"/>
<path d="M52.2891 5.00781L53.0014 5.20919V8.46736L52.2891 8.16078V5.00781Z" fill="white"/>
</svg>
