<svg width="1850" height="770" viewBox="0 0 1850 770" fill="none" xmlns="http://www.w3.org/2000/svg">
<g clip-path="url(#clip0_10000_3019)">
<g filter="url(#filter0_f_10000_3019)">
<ellipse cx="1108.86" cy="354.464" rx="741.464" ry="250.856" transform="rotate(-90 1108.86 354.464)" fill="#4278D5"/>
</g>
<g filter="url(#filter1_f_10000_3019)">
<ellipse cx="694.856" cy="354.464" rx="741.464" ry="250.856" transform="rotate(-90 694.856 354.464)" fill="#4278D5"/>
</g>
<g filter="url(#filter2_f_10000_3019)">
<ellipse cx="888" cy="751" rx="105" ry="931" transform="rotate(-90 888 751)" fill="#0A2E7E"/>
</g>
<g filter="url(#filter3_f_10000_3019)">
<path d="M783.213 645C1023.24 645 1107 650.693 1107 677.403C1107 704.113 618.06 837 161.713 837C-78.3172 837 259.505 734.955 342.078 711.257C455.08 671.116 543.183 645 783.213 645Z" fill="#031D58"/>
</g>
<g filter="url(#filter4_f_10000_3019)">
<path d="M1166.79 659C926.757 659 843 664.693 843 691.403C843 718.113 1331.94 851 1788.29 851C2028.32 851 1690.5 748.955 1607.92 725.257C1494.92 685.116 1406.82 659 1166.79 659Z" fill="#031D58"/>
</g>
<g opacity="0.8" filter="url(#filter5_f_10000_3019)">
<path d="M1426 -420.998C1501.22 -235.71 425.499 -78.9966 187.5 187.502C-583.5 1191 -580.022 514.779 -655.237 329.49C-730.452 144.202 -669.807 -265.833 -174.998 -466.693C319.811 -667.553 1350.79 -606.287 1426 -420.998Z" fill="#012762"/>
</g>
<path fill-rule="evenodd" clip-rule="evenodd" d="M1731.29 240.406L1743.26 250.78L1757.27 226.219L1779.7 189.068L1791.05 170.004L1779.61 159.807L1731.29 240.406Z" fill="#0076EA" fill-opacity="0.12"/>
<path fill-rule="evenodd" clip-rule="evenodd" d="M1679.27 202.208L1692.49 211.429L1703.83 185.45L1713.41 164.613L1722.99 143.776L1732.56 122.939L1718.64 115.402L1679.27 202.208Z" fill="#0076EA" fill-opacity="0.12"/>
<path fill-rule="evenodd" clip-rule="evenodd" d="M1620.86 165.773L1634.96 173.93L1666.79 79.8538L1652.87 73.5585L1625.47 152.65L1620.86 165.773Z" fill="#0076EA" fill-opacity="0.12"/>
<path fill-rule="evenodd" clip-rule="evenodd" d="M1556.52 135.651L1571.69 142.035L1594.47 41.8406L1587.29 38.9146L1579.31 35.5452L1556.52 135.651Z" fill="#0076EA" fill-opacity="0.12"/>
<path fill-rule="evenodd" clip-rule="evenodd" d="M874.633 -48.0577L896.977 -13.3001L942.729 55.0627L965.872 90.1749L987.418 83.7908L965.872 49.5652L943.084 15.3395L897.509 -53.1118L874.633 -48.0577Z" fill="#0076EA" fill-opacity="0.12"/>
<path fill-rule="evenodd" clip-rule="evenodd" d="M755.57 -13.623L768.516 3.66714L783.057 20.7799L790.062 29.0261L870.838 123.191L892.384 115.566L864.897 80.9852L835.814 46.6708L807.175 13.1545L778.358 -21.4258L755.57 -13.623Z" fill="#0076EA" fill-opacity="0.12"/>
<path fill-rule="evenodd" clip-rule="evenodd" d="M635.062 35.6525L705.819 101.798L778.261 167.501L798.565 156.152L763.985 123.433L738.626 99.3157L729.139 91.1583L659.091 25.5444L635.062 35.6525Z" fill="#0076EA" fill-opacity="0.12"/>
<path fill-rule="evenodd" clip-rule="evenodd" d="M519.859 97.76L538.834 114.252L685.845 221.983L707.48 209.304L697.815 201.235L583.523 116.469L541.406 85.0806L519.859 97.76Z" fill="#0076EA" fill-opacity="0.12"/>
<path fill-rule="evenodd" clip-rule="evenodd" d="M307.797 269.896L335.284 282.398L499.141 354.308L534.431 369.647L551.012 350.051L409.055 287.186L327.126 251.187L307.797 269.896Z" fill="#0076EA" fill-opacity="0.12"/>
<path fill-rule="evenodd" clip-rule="evenodd" d="M220.75 375.473L235.114 379.995L250.365 385.138L472.211 456.249L478.861 445.786L486.221 434.703L461.039 426.634L357.032 392.497L238.484 353.927L220.75 375.473Z" fill="#0076EA" fill-opacity="0.12"/>
<path fill-rule="evenodd" clip-rule="evenodd" d="M149.688 492.06L392.282 542.334L422.252 547.566L433.069 525.399L226.296 481.42L161.126 468.031L149.688 492.06Z" fill="#0076EA" fill-opacity="0.12"/>
<path fill-rule="evenodd" clip-rule="evenodd" d="M1782.01 285.216L1822.44 323.077L1834.94 304.545L1901 213.484L1892.4 204.262L1864.29 176.687" fill="#0076EA" fill-opacity="0.12"/>
<path fill-rule="evenodd" clip-rule="evenodd" d="M98.9609 616.461L115.453 617.791L132.655 619.564L233.381 630.381L383.318 645.81L391.209 622.933L277.803 609.988L106.586 591.102L98.9609 616.461Z" fill="#0076EA" fill-opacity="0.12"/>
<path fill-rule="evenodd" clip-rule="evenodd" d="M1460.04 95.0202L1522.9 118.251L1525.56 93.3355L1537.53 -8.72081L1540.02 -29.1144L1542.41 -49.5079L1517.58 -58.9953L1479.55 -72.4728L1474.23 -29.0257L1466.69 31.9775L1460.04 95.0202Z" fill="#0076EA" fill-opacity="0.12"/>
<path fill-rule="evenodd" clip-rule="evenodd" d="M915.281 -153.318L970.166 -43.3701L998.008 11.1603L1029.49 73.0504L1111.86 59.1295L1005.28 -159.613H1004.39L915.281 -153.318Z" fill="#0076EA" fill-opacity="0.12"/>
<path fill-rule="evenodd" clip-rule="evenodd" d="M258.68 135.878L377.405 202.201L417.572 224.19L436.99 235.185L516.88 279.608L581.961 316.316L650.324 252.741L437.965 127.72L342.382 71.1504L301.595 103.957L258.68 135.878Z" fill="#0076EA" fill-opacity="0.12"/>
<path fill-rule="evenodd" clip-rule="evenodd" d="M-131 823.612H345.765L370.237 689.901H330.958L303.116 688.66L131.988 684.847L104.146 683.606L74.9746 683.517L18.2275 682.01L-23.9783 681.123L-37.8104 679.793H-66.9821L-94.9123 678.552L-131 822.637V823.08V823.612Z" fill="#0076EA" fill-opacity="0.12"/>
<path d="M1109.08 -57.2723H1133.11L1181.43 54.626L1154.83 55.7787L1109.08 -57.2723Z" fill="#0076EA" fill-opacity="0.12"/>
<path d="M1217.11 -51.275H1238.12L1271.11 57.6973L1247.79 56.0127L1217.11 -51.275Z" fill="#0076EA" fill-opacity="0.12"/>
<path d="M1319.2 -43.8298L1340.75 -37.5344L1349.53 67.8913L1328.25 64.2559L1319.2 -43.8298Z" fill="#0076EA" fill-opacity="0.12"/>
<path d="M1408.38 -14.9023L1429.39 -8.96164V84.5L1408.38 78.1098V-14.9023Z" fill="#0076EA" fill-opacity="0.12"/>
</g>
<defs>
<filter id="filter0_f_10000_3019" x="503.879" y="-741.121" width="1209.95" height="2191.17" filterUnits="userSpaceOnUse" color-interpolation-filters="sRGB">
<feFlood flood-opacity="0" result="BackgroundImageFix"/>
<feBlend mode="normal" in="SourceGraphic" in2="BackgroundImageFix" result="shape"/>
<feGaussianBlur stdDeviation="177.061" result="effect1_foregroundBlur_10000_3019"/>
</filter>
<filter id="filter1_f_10000_3019" x="89.8787" y="-741.121" width="1209.95" height="2191.17" filterUnits="userSpaceOnUse" color-interpolation-filters="sRGB">
<feFlood flood-opacity="0" result="BackgroundImageFix"/>
<feBlend mode="normal" in="SourceGraphic" in2="BackgroundImageFix" result="shape"/>
<feGaussianBlur stdDeviation="177.061" result="effect1_foregroundBlur_10000_3019"/>
</filter>
<filter id="filter2_f_10000_3019" x="-236.93" y="452.07" width="2249.86" height="597.859" filterUnits="userSpaceOnUse" color-interpolation-filters="sRGB">
<feFlood flood-opacity="0" result="BackgroundImageFix"/>
<feBlend mode="normal" in="SourceGraphic" in2="BackgroundImageFix" result="shape"/>
<feGaussianBlur stdDeviation="96.9649" result="effect1_foregroundBlur_10000_3019"/>
</filter>
<filter id="filter3_f_10000_3019" x="-116.93" y="451.07" width="1417.86" height="579.859" filterUnits="userSpaceOnUse" color-interpolation-filters="sRGB">
<feFlood flood-opacity="0" result="BackgroundImageFix"/>
<feBlend mode="normal" in="SourceGraphic" in2="BackgroundImageFix" result="shape"/>
<feGaussianBlur stdDeviation="96.9649" result="effect1_foregroundBlur_10000_3019"/>
</filter>
<filter id="filter4_f_10000_3019" x="649.07" y="465.07" width="1417.86" height="579.859" filterUnits="userSpaceOnUse" color-interpolation-filters="sRGB">
<feFlood flood-opacity="0" result="BackgroundImageFix"/>
<feBlend mode="normal" in="SourceGraphic" in2="BackgroundImageFix" result="shape"/>
<feGaussianBlur stdDeviation="96.9649" result="effect1_foregroundBlur_10000_3019"/>
</filter>
<filter id="filter5_f_10000_3019" x="-1081.98" y="-991.385" width="2911.73" height="2115.79" filterUnits="userSpaceOnUse" color-interpolation-filters="sRGB">
<feFlood flood-opacity="0" result="BackgroundImageFix"/>
<feBlend mode="normal" in="SourceGraphic" in2="BackgroundImageFix" result="shape"/>
<feGaussianBlur stdDeviation="200" result="effect1_foregroundBlur_10000_3019"/>
</filter>
<clipPath id="clip0_10000_3019">
<rect width="1850" height="770" fill="white"/>
</clipPath>
</defs>
</svg>
